<svg width="17" height="16" viewBox="0 0 17 16" fill="none" xmlns="http://www.w3.org/2000/svg">
<path d="M7.87222 0.741543C8.19348 -0.247181 9.59226 -0.247181 9.91352 0.741543L11.0613 4.2742C11.205 4.71637 11.6171 5.01575 12.082 5.01575H15.7965C16.8361 5.01575 17.2683 6.34607 16.4272 6.95713L13.4222 9.14044C13.0461 9.41371 12.8887 9.89811 13.0323 10.3403L14.1802 13.8729C14.5014 14.8617 13.3698 15.6838 12.5287 15.0728L9.52366 12.8895C9.14753 12.6162 8.63821 12.6162 8.26208 12.8895L5.25702 15.0728C4.41596 15.6838 3.28432 14.8617 3.60558 13.8729L4.75341 10.3403C4.89708 9.89811 4.73969 9.41371 4.36356 9.14044L1.3585 6.95713C0.517438 6.34607 0.949685 5.01575 1.98929 5.01575H5.70375C6.16867 5.01575 6.58072 4.71637 6.72439 4.2742L7.87222 0.741543Z" fill="#F59E0B"/>
</svg>
